<?xml version="1.0" standalone="no"?><!DOCTYPE svg PUBLIC "-//W3C//DTD SVG 1.1//EN" "http://www.w3.org/Graphics/SVG/1.1/DTD/svg11.dtd"><svg t="1490611166206" class="icon" style="" viewBox="0 0 1024 1024" version="1.1" xmlns="http://www.w3.org/2000/svg" p-id="2439" xmlns:xlink="http://www.w3.org/1999/xlink" width="200" height="200"><defs><style type="text/css"></style></defs><path d="M873.813333 3.900952 150.186667 3.900952c-80.798476 0-146.285714 65.536-146.285714 146.285714l0 723.626667c0 80.798476 65.487238 146.285714 146.285714 146.285714l723.626667 0c80.798476 0 146.285714-65.487238 146.285714-146.285714L1020.099048 150.186667C1020.099048 69.436952 954.61181 3.900952 873.813333 3.900952zM223.232 860.891429l-68.705524-29.647238c36.717714-47.640381 53.833143-78.06781 72.606476-133.412571l59.294476 19.504762C264.582095 778.191238 248.198095 814.031238 223.232 860.891429zM349.671619 583.046095c0 46.031238-14.823619 60.854857-110.787048 78.116571-2.389333-18.773333-12.53181-50.761143-27.355429-70.217143 70.997333 5.412571 80.310857-6.290286 80.310857-27.355429l0-69.485714c-42.081524 10.971429-73.337905 20.284952-108.446476 34.279619C180.272762 508.099048 172.422095 477.720381 164.62019 458.947048c42.959238-6.290286 85.869714-13.214476 127.21981-21.796571L291.84 336.408381c-52.272762 0-90.502095 2.340571-120.198095 6.241524L171.641905 280.966095c30.427429 2.438095 67.925333 4.778667 120.198095 4.778667 0-58.514286-3.900952-104.643048-7.070476-120.929524 24.966095 3.900952 52.272762 6.192762 68.656762 6.192762 15.60381 0 17.261714 4.778667 7.070476 13.263238-4.729905 3.900952-10.971429 19.456-10.971429 30.427429l0 70.168381c29.598476-0.78019 53.101714-2.29181 73.386667-3.900952l0 61.732571C402.67581 340.309333 379.270095 338.017524 349.574095 337.237333l0 86.601143C375.320381 417.596952 401.115429 410.575238 426.032762 403.553524c-3.072 17.944381-3.072 46.811429-0.78019 60.854857C396.336762 470.649905 371.419429 475.428571 349.525333 480.792381l0 102.253714L349.671619 583.046095zM375.417905 849.92c0.78019-49.883429-2.340571-89.721905-11.02019-130.29181l61.732571-7.119238c11.702857 48.420571 20.284952 91.331048 25.697524 134.290286L375.417905 849.92zM559.689143 847.62819c-3.900952-53.150476-10.191238-86.601143-25.014857-134.290286l65.584762-7.801905c14.872381 52.272762 23.356952 85.918476 35.157333 135.119238L559.689143 847.62819zM770.389333 853.089524c-19.456-55.442286-42.959238-102.985143-73.386667-149.113905l60.854857-25.746286c30.47619 47.689143 57.002667 93.671619 83.529143 142.043429L770.389333 853.089524zM754.785524 642.29181c-35.888762-24.185905-52.272762-58.465524-60.074667-116.297143-7.070476-54.564571-4.778667-117.028571 1.511619-189.68381l-80.359619 3.900952c-4.681143 49.93219-14.043429 94.45181-28.867048 135.753143 27.355429 20.284952 55.442286 43.008 80.359619 63.292952l-47.689143 49.152c-18.724571-21.113905-37.497905-39.740952-56.953905-57.782857-26.575238 49.883429-64.024381 94.500571-114.785524 136.630857-17.16419-14.921143-38.180571-28.086857-64.75581-37.497905 64.024381-34.377143 108.544-78.848 136.630857-136.630857-20.284952-15.555048-39.789714-30.47619-60.854857-43.690667l37.497905-41.447619c13.214476 9.362286 28.086857 20.284952 43.690667 31.98781 8.630857-29.598476 14.043429-62.366476 17.212952-97.572571-28.91581 2.340571-68.656762 6.241524-92.842667 11.02019L458.166857 288.670476c26.575238 1.560381 62.464 1.560381 100.693333 0 0.828952-49.152 0-110.738286-1.560381-125.610667 20.284952 4.729905 59.343238 8.630857 74.166857 9.313524 13.994667 0.877714 16.384 5.461333 3.900952 17.261714-3.120762 3.072-10.142476 49.883429-14.872381 96.743619 58.514286-3.072 114.785524-7.801905 147.456-12.53181-18.724571 119.417905-24.185905 188.074667-12.483048 259.072 2.340571 14.09219 7.753143 31.256381 19.456 47.640381 10.191238 14.043429 21.113905 10.191238 36.668952-64.024381 13.263238 18.773333 36.766476 35.888762 57.831619 37.497905C840.606476 657.212952 800.816762 673.54819 754.785524 642.29181z" p-id="2440" fill="#bfbfbf"></path></svg>